<svg width="15" height="8" viewBox="0 0 15 8" fill="none" xmlns="http://www.w3.org/2000/svg">
    <path d="M14.2603 0.5425C14.3564 0.23 14.2603 0 13.7977 0H12.2669C11.877 0 11.6977 0.1975 11.6015 0.4175C11.6015 0.4175 10.8219 2.245 9.71989 3.43C9.36383 3.7725 9.2001 3.8825 9.00518 3.8825C8.90902 3.8825 8.76088 3.7725 8.76088 3.46V0.5425C8.76088 0.1675 8.65172 0 8.32945 0H5.92281C5.67851 0 5.53297 0.175 5.53297 0.3375C5.53297 0.6925 6.08395 0.775 6.14112 1.775V3.945C6.14112 4.42 6.05276 4.5075 5.85784 4.5075C5.33804 4.5075 4.07495 2.6725 3.32645 0.5725C3.17571 0.165 3.02757 0 2.63512 0H1.10434C0.66771 0 0.579346 0.1975 0.579346 0.4175C0.579346 0.8075 1.09914 2.745 2.99898 5.305C4.26467 7.0525 6.04756 8 7.66931 8C8.64392 8 8.76347 7.79 8.76347 7.4275C8.76347 5.7575 8.67511 5.6 9.16371 5.6C9.38982 5.6 9.77967 5.71 10.6893 6.5525C11.7289 7.5525 11.9004 8 12.4826 8H14.0134C14.45 8 14.6709 7.79 14.5436 7.375C14.2525 6.5025 12.2851 4.7075 12.1967 4.5875C11.9706 4.3075 12.0356 4.1825 12.1967 3.9325C12.1993 3.93 14.068 1.4 14.2603 0.5425Z" fill="white"/>
</svg>
