<svg width="17" height="16" viewBox="0 0 17 16" fill="none" xmlns="http://www.w3.org/2000/svg">
    <path d="M13.4825 3.03437C12.1731 1.72187 10.4293 1 8.57622 1C4.75122 1 1.63872 4.1125 1.63872 7.9375C1.63872 9.15938 1.95747 10.3531 2.56372 11.4062L1.57935 15L5.25747 14.0344C6.26997 14.5875 7.4106 14.8781 8.5731 14.8781H8.57622C12.3981 14.8781 15.5793 11.7656 15.5793 7.94063C15.5793 6.0875 14.7918 4.34687 13.4825 3.03437ZM8.57622 13.7094C7.53872 13.7094 6.5231 13.4312 5.63872 12.9062L5.42935 12.7812L3.2481 13.3531L3.82935 11.225L3.69185 11.0063C3.11372 10.0875 2.8106 9.02812 2.8106 7.9375C2.8106 4.75938 5.3981 2.17188 8.57935 2.17188C10.12 2.17188 11.5668 2.77187 12.6543 3.8625C13.7418 4.95312 14.4106 6.4 14.4075 7.94063C14.4075 11.1219 11.7543 13.7094 8.57622 13.7094ZM11.7387 9.39062C11.5668 9.30313 10.7137 8.88438 10.5543 8.82812C10.395 8.76875 10.2793 8.74062 10.1637 8.91562C10.0481 9.09062 9.71685 9.47813 9.61372 9.59688C9.51372 9.7125 9.4106 9.72812 9.23872 9.64062C8.21997 9.13125 7.55122 8.73125 6.87935 7.57812C6.70122 7.27187 7.05747 7.29375 7.38872 6.63125C7.44497 6.51562 7.41685 6.41563 7.3731 6.32812C7.32935 6.24062 6.98247 5.3875 6.83872 5.04063C6.6981 4.70312 6.55435 4.75 6.4481 4.74375C6.3481 4.7375 6.23247 4.7375 6.11685 4.7375C6.00122 4.7375 5.81372 4.78125 5.65435 4.95312C5.49497 5.12813 5.0481 5.54688 5.0481 6.4C5.0481 7.25313 5.66997 8.07813 5.75435 8.19375C5.84185 8.30938 6.97622 10.0594 8.71685 10.8125C9.81685 11.2875 10.2481 11.3281 10.7981 11.2469C11.1325 11.1969 11.8231 10.8281 11.9668 10.4219C12.1106 10.0156 12.1106 9.66875 12.0668 9.59688C12.0262 9.51875 11.9106 9.475 11.7387 9.39062Z" fill="white"/>
</svg>
